<svg xmlns="http://www.w3.org/2000/svg" width="34" height="34" fill="none" viewBox="0 0 34 34"><path fill="#000" d="M7.792 31.167a2.05 2.05 0 0 1-1.506-.62 2.05 2.05 0 0 1-.62-1.505V10.979c0-1.298.402-2.426 1.205-3.382a5.13 5.13 0 0 1 3.046-1.789V4.604c0-.496.17-.915.513-1.257a1.71 1.71 0 0 1 1.258-.514c.495 0 .914.172 1.257.514.342.342.513.761.513 1.257v1.063h7.084V4.604c0-.496.17-.915.513-1.257a1.71 1.71 0 0 1 1.258-.514c.495 0 .914.172 1.257.514.342.342.513.761.513 1.257v1.204a5.13 5.13 0 0 1 3.046 1.789c.803.956 1.204 2.084 1.204 3.382v18.063a2.05 2.05 0 0 1-.62 1.505 2.05 2.05 0 0 1-1.505.62H7.792zm0-2.125h18.416V10.979c0-.897-.307-1.653-.92-2.266-.614-.614-1.37-.921-2.267-.921H10.979c-.873 0-1.623.307-2.249.92-.626.614-.938 1.37-.938 2.267v18.063zm15.229-6.73c.307 0 .56-.1.761-.3.201-.201.301-.455.301-.762v-2.833c0-.307-.1-.561-.3-.762-.201-.2-.455-.3-.762-.3H10.979c-.307 0-.56.1-.761.3-.201.2-.301.455-.301.762s.1.56.3.761c.201.2.455.301.762.301h10.98v1.771c0 .307.1.56.3.762.201.2.455.3.762.3z"/></svg>