<svg xmlns="http://www.w3.org/2000/svg" width="34" height="34" fill="none" viewBox="0 0 34 34"><path fill="#000" d="M7.083 26.775v1.594c0 .401-.135.732-.407.991-.271.26-.608.39-1.01.39a1.37 1.37 0 0 1-1.009-.407 1.37 1.37 0 0 1-.407-1.01v-11.12l3.01-9.067c.118-.33.313-.59.585-.78.271-.188.584-.283.938-.283h16.434a1.6 1.6 0 0 1 .938.284c.272.189.466.448.585.779l3.01 9.066V28.37c0 .401-.136.732-.407.991-.272.26-.608.39-1.01.39a1.37 1.37 0 0 1-1.009-.407 1.37 1.37 0 0 1-.407-1.01v-1.558H7.083zm.107-11.687h19.62l-1.947-5.88H9.136l-1.947 5.88zm-.815 2.124v7.438-7.438zm3.754 5.667c.543 0 .998-.189 1.364-.567.366-.377.549-.826.549-1.345 0-.543-.183-1.01-.55-1.4a1.795 1.795 0 0 0-1.363-.584c-.543 0-1.01.195-1.399.585-.39.39-.584.856-.584 1.399s.195.997.584 1.363c.39.366.856.55 1.4.55zm13.777 0c.543 0 1.01-.189 1.4-.567.389-.377.584-.826.584-1.345a1.91 1.91 0 0 0-.585-1.4 1.909 1.909 0 0 0-1.399-.584c-.543 0-.997.195-1.363.585-.366.39-.55.856-.55 1.399s.19.997.567 1.363c.378.366.827.55 1.346.55zM6.375 24.65h21.25v-7.438H6.375v7.438z"/></svg>