<svg xmlns="http://www.w3.org/2000/svg" width="39" height="39" fill="none" viewBox="0 0 39 39"><path fill="#FF833E" d="M19.5 34.938c-2.14 0-4.15-.407-6.033-1.22-1.882-.812-3.514-1.909-4.895-3.29-1.381-1.381-2.478-3.013-3.29-4.895-.813-1.883-1.22-3.893-1.22-6.033 0-2.14.407-4.15 1.22-6.033.812-1.882 1.909-3.514 3.29-4.895 1.381-1.381 3.013-2.478 4.895-3.29 1.883-.813 3.893-1.22 6.033-1.22 2.14 0 4.15.407 6.033 1.22 1.882.812 3.514 1.909 4.895 3.29 1.381 1.381 2.478 3.013 3.29 4.895.813 1.883 1.22 3.893 1.22 6.033 0 2.14-.407 4.15-1.22 6.033-.812 1.882-1.909 3.514-3.29 4.895-1.381 1.381-3.013 2.478-4.895 3.29-1.883.813-3.893 1.22-6.033 1.22zm-1.706-1.91v-3.29c-.948 0-1.74-.339-2.377-1.016-.636-.677-.954-1.49-.954-2.438v-1.746l-8.207-8.166a20.75 20.75 0 0 0-.264 1.544 12.135 12.135 0 0 0-.101 1.584c0 3.467 1.13 6.486 3.392 9.06 2.261 2.572 5.098 4.062 8.51 4.468zm11.74-4.306a13.2 13.2 0 0 0 1.524-2.031c.447-.732.826-1.49 1.137-2.275.312-.786.542-1.591.69-2.418.15-.826.224-1.658.224-2.498 0-2.817-.772-5.383-2.315-7.698-1.544-2.316-3.616-4.002-6.216-5.058v.772c0 .92-.318 1.726-.955 2.417-.636.69-1.428 1.036-2.376 1.036h-3.453v3.453c0 .46-.176.84-.528 1.137a1.831 1.831 0 0 1-1.22.447h-3.33V19.5h10.278c.46 0 .84.17 1.137.508.298.338.447.738.447 1.198v5.078h1.706c.786 0 1.47.224 2.052.67a3.374 3.374 0 0 1 1.198 1.768z"/></svg>