<svg xmlns="http://www.w3.org/2000/svg" width="34" height="34" fill="none" viewBox="0 0 34 34"><path fill="#000" d="M7.367 18.7a1.64 1.64 0 0 1-1.204-.496A1.64 1.64 0 0 1 5.667 17c0-.472.165-.874.496-1.204a1.64 1.64 0 0 1 1.204-.496c.472 0 .873.165 1.204.496.33.33.496.732.496 1.204s-.166.874-.496 1.204a1.64 1.64 0 0 1-1.204.496zm9.633 0a1.64 1.64 0 0 1-1.204-.496A1.64 1.64 0 0 1 15.3 17c0-.472.165-.874.496-1.204A1.64 1.64 0 0 1 17 15.3c.472 0 .874.165 1.204.496.33.33.496.732.496 1.204s-.165.874-.496 1.204A1.64 1.64 0 0 1 17 18.7zm9.633 0a1.64 1.64 0 0 1-1.204-.496A1.64 1.64 0 0 1 24.933 17c0-.472.166-.874.496-1.204a1.64 1.64 0 0 1 1.204-.496c.473 0 .874.165 1.204.496.331.33.496.732.496 1.204s-.165.874-.495 1.204a1.64 1.64 0 0 1-1.205.496z"/></svg>