<svg xmlns="http://www.w3.org/2000/svg" width="91" height="91" fill="none" viewBox="0 0 91 91"><path fill="#B0B0B0" d="M28.722 64.174l22.845-11.186c.316-.126.584-.3.805-.52.222-.222.395-.49.522-.807l11.185-22.844c.316-.632.237-1.185-.237-1.66-.474-.473-1.027-.552-1.659-.236L39.34 38.106c-.316.127-.585.3-.806.522-.221.22-.395.49-.522.805L26.826 62.278c-.316.632-.237 1.185.237 1.659s1.027.553 1.659.237zM45.5 49.292c-1.074 0-1.975-.364-2.702-1.09-.726-.727-1.09-1.628-1.09-2.702s.364-1.975 1.09-2.702c.727-.726 1.628-1.09 2.702-1.09s1.975.364 2.702 1.09c.726.727 1.09 1.628 1.09 2.702s-.364 1.975-1.09 2.702c-.727.726-1.628 1.09-2.702 1.09zm0 34.125c-5.182 0-10.08-.996-14.693-2.986-4.613-1.99-8.641-4.708-12.086-8.152-3.444-3.444-6.161-7.473-8.152-12.086C8.58 55.58 7.583 50.682 7.583 45.5s.996-10.08 2.986-14.693c1.99-4.613 4.708-8.641 8.152-12.086 3.445-3.444 7.473-6.161 12.086-8.152C35.42 8.58 40.318 7.583 45.5 7.583s10.08.996 14.693 2.986c4.613 1.99 8.642 4.708 12.086 8.152 3.444 3.445 6.161 7.473 8.152 12.086 1.99 4.613 2.986 9.511 2.986 14.693s-.996 10.08-2.986 14.693c-1.99 4.613-4.708 8.642-8.152 12.086-3.444 3.444-7.473 6.161-12.086 8.152-4.613 1.99-9.511 2.986-14.693 2.986zm0-5.688c8.847 0 16.43-3.16 22.75-9.479 6.32-6.32 9.48-13.903 9.48-22.75s-3.16-16.43-9.48-22.75-13.903-9.48-22.75-9.48-16.43 3.16-22.75 9.48-9.48 13.903-9.48 22.75 3.16 16.43 9.48 22.75 13.903 9.48 22.75 9.48z"/></svg>