<svg xmlns="http://www.w3.org/2000/svg" width="130" height="24" fill="none" viewBox="0 0 130 24"><g fill="#000" clip-path="url(#a)"><path d="M7.51 5.71c.927 0 1.785.18 2.573.542a5.845 5.845 0 0 1 2.022 1.447 6.304 6.304 0 0 1 1.339 2.144c.332.81.499 1.68.499 2.61 0 .93-.166 1.808-.5 2.634a6.654 6.654 0 0 1-1.338 2.144 6.332 6.332 0 0 1-2.022 1.447 6.353 6.353 0 0 1-2.573.517c-.753 0-1.488-.13-2.206-.388-.718-.275-1.278-.62-1.68-1.033V24H0V6.071h3.098l.526.878a4.524 4.524 0 0 1 1.706-.955c.63-.19 1.357-.285 2.18-.285zm-.473 10.307c.473 0 .91-.095 1.313-.284.42-.19.779-.44 1.076-.75a3.55 3.55 0 0 0 .736-1.136c.192-.43.288-.895.288-1.395 0-.482-.096-.938-.288-1.37a3.21 3.21 0 0 0-.736-1.136 3.232 3.232 0 0 0-1.076-.775 3.045 3.045 0 0 0-1.313-.284 4.27 4.27 0 0 0-1.34.207c-.402.12-.76.327-1.076.62-.297.275-.534.646-.709 1.11-.175.448-.262.99-.262 1.628 0 .603.087 1.128.262 1.576.175.43.412.8.71 1.11a3.32 3.32 0 0 0 1.076.672c.42.138.866.207 1.339.207zM15.592 0h3.624v18.885h-3.624V0zm19.472 6.071v12.814h-3.125l-.367-1.37c-.508.672-1.12 1.12-1.838 1.344-.7.224-1.436.336-2.206.336a6.353 6.353 0 0 1-2.573-.517 6.744 6.744 0 0 1-2.022-1.447 7.039 7.039 0 0 1-1.366-2.144 7.335 7.335 0 0 1-.472-2.635c0-.93.157-1.8.473-2.61A6.647 6.647 0 0 1 22.932 7.7a6.191 6.191 0 0 1 2.022-1.447 6.092 6.092 0 0 1 2.573-.543c.84 0 1.61.13 2.31.388s1.278.672 1.734 1.24l.367-1.266h3.125zm-3.624 6.433c0-.672-.096-1.232-.289-1.68-.175-.464-.42-.835-.735-1.11a2.485 2.485 0 0 0-1.076-.62 4.03 4.03 0 0 0-1.313-.207 3.22 3.22 0 0 0-1.34.284 3.63 3.63 0 0 0-1.076.775c-.315.31-.56.69-.735 1.137a3.6 3.6 0 0 0-.263 1.37c0 .499.088.964.263 1.394.175.43.42.81.735 1.137.315.31.674.56 1.077.749.42.19.866.284 1.339.284.945 0 1.742-.284 2.39-.852.664-.586 1.006-1.473 1.023-2.661zm12.746-6.433c.49 0 1.032.069 1.628.207a4.643 4.643 0 0 1 1.68.775c.525.379.963.904 1.313 1.576.368.671.551 1.541.551 2.609v7.647h-3.65v-7.518c0-.396-.07-.732-.21-1.008a1.495 1.495 0 0 0-.525-.645 1.833 1.833 0 0 0-.735-.362 2.85 2.85 0 0 0-.84-.13c-.228 0-.481.044-.762.13-.262.069-.516.19-.761.362-.228.172-.42.396-.578.671a1.953 1.953 0 0 0-.236.982v7.518h-3.623V6.07h3.098l.525.982c.42-.293.893-.526 1.418-.698a4.994 4.994 0 0 1 1.707-.284zm14.205 0c.49 0 1.033.069 1.628.207a4.644 4.644 0 0 1 1.68.775c.526.379.964.904 1.314 1.576.367.671.551 1.541.551 2.609v7.647h-3.65v-7.518c0-.396-.07-.732-.21-1.008a1.495 1.495 0 0 0-.525-.645 1.832 1.832 0 0 0-.735-.362 2.85 2.85 0 0 0-.84-.13c-.228 0-.482.044-.762.13-.262.069-.516.19-.761.362-.228.172-.42.396-.578.671a1.953 1.953 0 0 0-.236.982v7.518h-3.624V6.07h3.099l.525.982c.42-.293.892-.526 1.418-.698a4.993 4.993 0 0 1 1.706-.284zm15.677 0h3.623v12.814h-3.098l-.525-.982a5.93 5.93 0 0 1-1.445.724 5.447 5.447 0 0 1-1.706.258 7.529 7.529 0 0 1-1.628-.207 4.644 4.644 0 0 1-1.68-.775c-.526-.379-.972-.904-1.34-1.576-.35-.672-.525-1.541-.525-2.609V6.071h3.65v7.518c0 .396.061.732.183 1.007.14.276.316.5.526.672.227.155.481.276.761.362.28.069.57.103.867.103.227 0 .472-.034.735-.103.28-.086.534-.216.761-.388.245-.172.447-.396.604-.672.158-.275.237-.602.237-.981V6.07zm12.786 0c.49 0 1.033.069 1.628.207a4.643 4.643 0 0 1 1.68.775c.526.379.963.904 1.313 1.576.368.671.552 1.541.552 2.609v7.647h-3.65v-7.518c0-.396-.07-.732-.21-1.008a1.494 1.494 0 0 0-.525-.645 1.833 1.833 0 0 0-.735-.362 2.85 2.85 0 0 0-.84-.13c-.228 0-.482.044-.762.13-.263.069-.516.19-.762.362-.227.172-.42.396-.577.671-.158.276-.236.603-.236.982v7.518h-3.624V6.07h3.098l.526.982c.42-.293.892-.526 1.417-.698a4.994 4.994 0 0 1 1.707-.284zm11.37 12.814H94.6V6.07h3.624v12.814zm-1.812-14.57c-.56 0-1.033-.19-1.418-.569a1.881 1.881 0 0 1-.577-1.395c0-.551.192-1.016.577-1.395a1.9 1.9 0 0 1 1.418-.594 1.9 1.9 0 0 1 1.418.594c.385.379.578.844.578 1.395s-.193 1.016-.578 1.395a1.944 1.944 0 0 1-1.418.568zm9.32 9.971c0 .603.184 1.068.551 1.395.385.328.884.491 1.497.491.49 0 .98-.095 1.47-.284v2.997c-.437.138-.901.25-1.391.336-.49.103-.981.155-1.471.155a6.08 6.08 0 0 1-1.601-.207 3.664 3.664 0 0 1-1.366-.698c-.402-.344-.726-.792-.971-1.343-.228-.568-.342-1.266-.342-2.092V9.248h-1.864V6.846l1.864-.775V3.203h3.624v2.868h3.518v3.178h-3.518v5.037zm15.303-8.215H125L116.781 24h-3.965l3.23-7.053-5.514-10.876h4.044l3.387 6.691 3.072-6.691z"/></g><g clip-path="url(#b)"><path fill="#FF833E" d="M127.5 24a2.5 2.5 0 1 0 0-5 2.5 2.5 0 0 0 0 5z"/></g><defs><clipPath id="a"><path fill="#fff" d="M0 0h125v24H0z"/></clipPath><clipPath id="b"><path fill="#fff" d="M0 0h5v5H0z" transform="translate(125 19)"/></clipPath></defs></svg>