<svg xmlns="http://www.w3.org/2000/svg" width="34" height="34" fill="none" viewBox="0 0 34 34"><path fill="#000" d="M5.348 29.75c-.307 0-.56-.1-.762-.301-.2-.2-.3-.455-.3-.762 0-.306.1-.56.3-.761.201-.2.455-.301.762-.301h23.375c.307 0 .56.1.761.301.201.2.301.455.301.762 0 .306-.1.56-.3.761-.201.2-.455.301-.762.301H5.348zm1.948-7.58a.993.993 0 0 1-.69-.035 1.028 1.028 0 0 1-.514-.46l-2.657-4.533c-.165-.26-.194-.508-.088-.744.106-.236.313-.378.62-.425a.756.756 0 0 1 .39.035c.14.048.259.107.353.177l2.16 1.913 8.005-2.16-5.313-8.89C9.35 6.694 9.31 6.35 9.44 6.02c.13-.33.395-.555.796-.673.19-.047.39-.047.603 0 .212.047.39.13.53.248l9.599 8.677 7.65-2.054c.637-.19 1.216-.077 1.735.336.52.413.78.962.78 1.647 0 .449-.137.85-.408 1.204a1.94 1.94 0 0 1-1.045.709L7.296 22.17z"/></svg>