<svg xmlns="http://www.w3.org/2000/svg" width="80" height="12" fill="none" viewBox="0 0 80 12"><path fill="#FF833E" stroke="#FF833E" stroke-linecap="round" stroke-linejoin="round" stroke-width="1.5" d="M74 1l1.545 3.13L79 4.635 76.5 7.07l.59 3.44L74 8.885l-3.09 1.625.59-3.44L69 4.635l3.455-.505L74 1zM23 1l1.545 3.13L28 4.635 25.5 7.07l.59 3.44L23 8.885l-3.09 1.625.59-3.44L18 4.635l3.455-.505L23 1zm34 0l1.545 3.13L62 4.635 59.5 7.07l.59 3.44L57 8.885l-3.09 1.625.59-3.44L52 4.635l3.455-.505L57 1zM6 1l1.545 3.13L11 4.635 8.5 7.07l.59 3.44L6 8.885 2.91 10.51l.59-3.44L1 4.635l3.455-.505L6 1zm34 0l1.545 3.13L45 4.635 42.5 7.07l.59 3.44L40 8.885l-3.09 1.625.59-3.44L35 4.635l3.455-.505L40 1z"/></svg>