<svg width="80" height="12" viewBox="0 0 80 12" fill="none" xmlns="http://www.w3.org/2000/svg">
<path d="M74 1L75.545 4.13L79 4.635L76.5 7.07L77.09 10.51L74 8.885L70.91 10.51L71.5 7.07L69 4.635L72.455 4.13L74 1Z" fill="#FF833E" stroke="#FF833E" stroke-width="1.5" stroke-linecap="round" stroke-linejoin="round"/>
<path d="M23 1L24.545 4.13L28 4.635L25.5 7.07L26.09 10.51L23 8.885L19.91 10.51L20.5 7.07L18 4.635L21.455 4.13L23 1Z" fill="#FF833E" stroke="#FF833E" stroke-width="1.5" stroke-linecap="round" stroke-linejoin="round"/>
<path d="M57 1L58.545 4.13L62 4.635L59.5 7.07L60.09 10.51L57 8.885L53.91 10.51L54.5 7.07L52 4.635L55.455 4.13L57 1Z" fill="#FF833E" stroke="#FF833E" stroke-width="1.5" stroke-linecap="round" stroke-linejoin="round"/>
<path d="M6 1L7.545 4.13L11 4.635L8.5 7.07L9.09 10.51L6 8.885L2.91 10.51L3.5 7.07L1 4.635L4.455 4.13L6 1Z" fill="#FF833E" stroke="#FF833E" stroke-width="1.5" stroke-linecap="round" stroke-linejoin="round"/>
<path d="M40 1L41.545 4.13L45 4.635L42.5 7.07L43.09 10.51L40 8.885L36.91 10.51L37.5 7.07L35 4.635L38.455 4.13L40 1Z" fill="#FF833E" stroke="#FF833E" stroke-width="1.5" stroke-linecap="round" stroke-linejoin="round"/>
</svg>
