<svg width="35" height="35" viewBox="0 0 35 35" fill="none" xmlns="http://www.w3.org/2000/svg">
<path d="M24.7917 30.625V27.7083C24.7917 26.1612 24.1771 24.6775 23.0832 23.5835C21.9892 22.4896 20.5055 21.875 18.9584 21.875H7.29171C5.74461 21.875 4.26088 22.4896 3.16692 23.5835C2.07296 24.6775 1.45837 26.1612 1.45837 27.7083V30.625" stroke="#FF833E" stroke-width="2" stroke-linecap="round" stroke-linejoin="round"/>
<path d="M13.125 16.0417C16.3466 16.0417 18.9583 13.43 18.9583 10.2083C18.9583 6.98667 16.3466 4.375 13.125 4.375C9.9033 4.375 7.29163 6.98667 7.29163 10.2083C7.29163 13.43 9.9033 16.0417 13.125 16.0417Z" stroke="#FF833E" stroke-width="2" stroke-linecap="round" stroke-linejoin="round"/>
<path d="M33.5416 30.625V27.7083C33.5407 26.4158 33.1105 25.1603 32.3186 24.1388C31.5268 23.1173 30.4181 22.3877 29.1666 22.0646" stroke="#FF833E" stroke-width="2" stroke-linecap="round" stroke-linejoin="round"/>
<path d="M23.3334 4.56458C24.5881 4.88585 25.7003 5.6156 26.4945 6.63878C27.2887 7.66196 27.7198 8.92037 27.7198 10.2156C27.7198 11.5109 27.2887 12.7693 26.4945 13.7925C25.7003 14.8156 24.5881 15.5454 23.3334 15.8667" stroke="#FF833E" stroke-width="2" stroke-linecap="round" stroke-linejoin="round"/>
</svg>
