<svg width="22" height="22" viewBox="0 0 22 22" fill="none" xmlns="http://www.w3.org/2000/svg">
<path d="M0.870834 18.3333V16.1791C0.870834 15.6444 1.00833 15.1593 1.28333 14.7239C1.55833 14.2885 1.94028 13.9639 2.42917 13.75C3.54445 13.2611 4.54896 12.9097 5.44271 12.6958C6.33646 12.4819 7.25694 12.375 8.20417 12.375C9.15139 12.375 10.0681 12.4819 10.9542 12.6958C11.8403 12.9097 12.841 13.2611 13.9563 13.75C14.4451 13.9639 14.8309 14.2885 15.1135 14.7239C15.3962 15.1593 15.5375 15.6444 15.5375 16.1791V18.3333H0.870834ZM16.9125 18.3333V16.1791C16.9125 15.2166 16.6681 14.426 16.1792 13.8073C15.6903 13.1885 15.0486 12.6882 14.2542 12.3062C15.3083 12.4284 16.3014 12.608 17.2333 12.8448C18.1653 13.0816 18.9215 13.3527 19.5021 13.6583C20.0062 13.9486 20.4035 14.3076 20.6937 14.7354C20.984 15.1632 21.1292 15.6444 21.1292 16.1791V18.3333H16.9125ZM8.20417 10.9771C7.19583 10.9771 6.37083 10.6562 5.72917 10.0146C5.0875 9.37288 4.76667 8.54788 4.76667 7.53955C4.76667 6.53122 5.0875 5.70622 5.72917 5.06455C6.37083 4.42288 7.19583 4.10205 8.20417 4.10205C9.2125 4.10205 10.0375 4.42288 10.6792 5.06455C11.3208 5.70622 11.6417 6.53122 11.6417 7.53955C11.6417 8.54788 11.3208 9.37288 10.6792 10.0146C10.0375 10.6562 9.2125 10.9771 8.20417 10.9771V10.9771ZM16.4542 7.53955C16.4542 8.54788 16.1333 9.37288 15.4917 10.0146C14.85 10.6562 14.025 10.9771 13.0167 10.9771C12.8486 10.9771 12.6615 10.9656 12.4552 10.9427C12.249 10.9198 12.0618 10.8777 11.8938 10.8166C12.2604 10.4347 12.5392 9.9649 12.7302 9.40726C12.9212 8.84962 13.0167 8.22705 13.0167 7.53955C13.0167 6.85205 12.9212 6.24476 12.7302 5.71768C12.5392 5.19059 12.2604 4.70552 11.8938 4.26247C12.0618 4.21663 12.249 4.17844 12.4552 4.14788C12.6615 4.11733 12.8486 4.10205 13.0167 4.10205C14.025 4.10205 14.85 4.42288 15.4917 5.06455C16.1333 5.70622 16.4542 6.53122 16.4542 7.53955V7.53955ZM2.24583 16.9583H14.1625V16.1791C14.1625 15.9347 14.0899 15.6979 13.9448 15.4687C13.7997 15.2395 13.6201 15.0791 13.4062 14.9875C12.3062 14.4986 11.3819 14.1701 10.6333 14.002C9.88472 13.834 9.075 13.75 8.20417 13.75C7.33333 13.75 6.51979 13.834 5.76354 14.002C5.00729 14.1701 4.07917 14.4986 2.97917 14.9875C2.76528 15.0791 2.58958 15.2395 2.45208 15.4687C2.31458 15.6979 2.24583 15.9347 2.24583 16.1791V16.9583ZM8.20417 9.60205C8.8 9.60205 9.29271 9.40726 9.68229 9.01767C10.0719 8.62809 10.2667 8.13538 10.2667 7.53955C10.2667 6.94372 10.0719 6.45101 9.68229 6.06143C9.29271 5.67184 8.8 5.47705 8.20417 5.47705C7.60833 5.47705 7.11563 5.67184 6.72604 6.06143C6.33646 6.45101 6.14167 6.94372 6.14167 7.53955C6.14167 8.13538 6.33646 8.62809 6.72604 9.01767C7.11563 9.40726 7.60833 9.60205 8.20417 9.60205Z" fill="#FF833E"/>
</svg>
