<svg xmlns="http://www.w3.org/2000/svg"><symbol id="arrow-down" viewBox="0 0 23 23"><path stroke="#A8A8A8" stroke-linecap="round" stroke-linejoin="round" stroke-width="2" d="M5.75 8.625l5.75 5.75 5.75-5.75"/></symbol><symbol id="arrow-left" viewBox="0 0 24 24"><path d="M19 12H5m7 7l-7-7 7-7"/></symbol><symbol id="backpack" viewBox="0 0 34 34"><path d="M7.792 31.167a2.05 2.05 0 0 1-1.506-.62 2.05 2.05 0 0 1-.62-1.505V10.979c0-1.298.402-2.426 1.205-3.382a5.13 5.13 0 0 1 3.046-1.789V4.604c0-.496.17-.915.513-1.257a1.71 1.71 0 0 1 1.258-.514c.495 0 .914.172 1.257.514.342.342.513.761.513 1.257v1.063h7.084V4.604c0-.496.17-.915.513-1.257a1.71 1.71 0 0 1 1.258-.514c.495 0 .914.172 1.257.514.342.342.513.761.513 1.257v1.204a5.13 5.13 0 0 1 3.046 1.789c.803.956 1.204 2.084 1.204 3.382v18.063a2.05 2.05 0 0 1-.62 1.505 2.05 2.05 0 0 1-1.505.62H7.792zm0-2.125h18.416V10.979c0-.897-.307-1.653-.92-2.266-.614-.614-1.37-.921-2.267-.921H10.979c-.873 0-1.623.307-2.249.92-.626.614-.938 1.37-.938 2.267v18.063zm15.229-6.73c.307 0 .56-.1.761-.3.201-.201.301-.455.301-.762v-2.833c0-.307-.1-.561-.3-.762-.201-.2-.455-.3-.762-.3H10.979c-.307 0-.56.1-.761.3-.201.2-.301.455-.301.762s.1.56.3.761c.201.2.455.301.762.301h10.98v1.771c0 .307.1.56.3.762.201.2.455.3.762.3z"/></symbol><symbol id="bag" viewBox="0 0 32 32"><path d="M4.667 28c-.534 0-1-.2-1.4-.6-.4-.4-.6-.867-.6-1.4V10c0-.533.2-1 .6-1.4.4-.4.866-.6 1.4-.6h6V4.667c0-.534.2-1 .6-1.4.4-.4.866-.6 1.4-.6h6.666c.534 0 1 .2 1.4.6.4.4.6.866.6 1.4V8h6c.534 0 1 .2 1.4.6.4.4.6.867.6 1.4v16c0 .533-.2 1-.6 1.4-.4.4-.866.6-1.4.6H4.667zm0-2h22.666V10H4.667v16zm8-18h6.666V4.667h-6.666V8zm-8 18V10v16z"/></symbol><symbol id="cancel-gray" viewBox="0 0 24 24"><path stroke="#B4B4B4" stroke-linecap="round" stroke-linejoin="round" stroke-width="2" d="M18 6L6 18M6 6l12 12"/></symbol><symbol id="camera" viewBox="0 0 25 25"><path stroke="#BFBFBF" stroke-linecap="round" stroke-linejoin="round" stroke-width="2" d="M23.958 19.792a2.083 2.083 0 0 1-2.083 2.083H3.125a2.083 2.083 0 0 1-2.083-2.083V8.333A2.083 2.083 0 0 1 3.125 6.25h4.167l2.083-3.125h6.25l2.083 3.125h4.167a2.083 2.083 0 0 1 2.083 2.083v11.459z"/><path stroke="#BFBFBF" stroke-linecap="round" stroke-linejoin="round" stroke-width="2" d="M12.5 17.708a4.167 4.167 0 1 0 0-8.333 4.167 4.167 0 0 0 0 8.333z"/></symbol><symbol id="bell" viewBox="0 0 24 24"><path d="M18 8A6 6 0 0 0 6 8c0 7-3 9-3 9h18s-3-2-3-9m-4.27 13a2 2 0 0 1-3.46 0"/></symbol><symbol id="dot" viewBox="0 0 4 4"><circle cx="2" cy="2" r="2" fill="#FF833E"/></symbol><symbol id="dot-gray" viewBox="0 0 3 3"><circle cx="1.5" cy="1.5" r="1.5" fill="#939393"/></symbol><symbol id="earth" viewBox="0 0 39 39"><path fill="#FF833E" d="M19.5 34.938c-2.14 0-4.15-.407-6.033-1.22-1.882-.812-3.514-1.909-4.895-3.29-1.381-1.381-2.478-3.013-3.29-4.895-.813-1.883-1.22-3.893-1.22-6.033 0-2.14.407-4.15 1.22-6.033.812-1.882 1.909-3.514 3.29-4.895 1.381-1.381 3.013-2.478 4.895-3.29 1.883-.813 3.893-1.22 6.033-1.22 2.14 0 4.15.407 6.033 1.22 1.882.812 3.514 1.909 4.895 3.29 1.381 1.381 2.478 3.013 3.29 4.895.813 1.883 1.22 3.893 1.22 6.033 0 2.14-.407 4.15-1.22 6.033-.812 1.882-1.909 3.514-3.29 4.895-1.381 1.381-3.013 2.478-4.895 3.29-1.883.813-3.893 1.22-6.033 1.22zm-1.706-1.91v-3.29c-.948 0-1.74-.339-2.377-1.016-.636-.677-.954-1.49-.954-2.438v-1.746l-8.207-8.166a20.75 20.75 0 0 0-.264 1.544 12.135 12.135 0 0 0-.101 1.584c0 3.467 1.13 6.486 3.392 9.06 2.261 2.572 5.098 4.062 8.51 4.468zm11.74-4.306a13.2 13.2 0 0 0 1.524-2.031c.447-.732.826-1.49 1.137-2.275.312-.786.542-1.591.69-2.418.15-.826.224-1.658.224-2.498 0-2.817-.772-5.383-2.315-7.698-1.544-2.316-3.616-4.002-6.216-5.058v.772c0 .92-.318 1.726-.955 2.417-.636.69-1.428 1.036-2.376 1.036h-3.453v3.453c0 .46-.176.84-.528 1.137a1.831 1.831 0 0 1-1.22.447h-3.33V19.5h10.278c.46 0 .84.17 1.137.508.298.338.447.738.447 1.198v5.078h1.706c.786 0 1.47.224 2.052.67a3.374 3.374 0 0 1 1.198 1.768z"/></symbol><symbol id="edit-3" viewBox="0 0 24 24"><path d="M12 20h9M16.5 3.5a2.121 2.121 0 0 1 3 3L7 19l-4 1 1-4L16.5 3.5z"/></symbol><symbol id="car" viewBox="0 0 34 34"><path d="M7.083 26.775v1.594c0 .401-.135.732-.407.991-.271.26-.608.39-1.01.39a1.37 1.37 0 0 1-1.009-.407 1.37 1.37 0 0 1-.407-1.01v-11.12l3.01-9.067c.118-.33.313-.59.585-.78.271-.188.584-.283.938-.283h16.434a1.6 1.6 0 0 1 .938.284c.272.189.466.448.585.779l3.01 9.066V28.37c0 .401-.136.732-.407.991-.272.26-.608.39-1.01.39a1.37 1.37 0 0 1-1.009-.407 1.37 1.37 0 0 1-.407-1.01v-1.558H7.083zm.107-11.687h19.62l-1.947-5.88H9.136l-1.947 5.88zm-.815 2.124v7.438-7.438zm3.754 5.667c.543 0 .998-.189 1.364-.567.366-.377.549-.826.549-1.345 0-.543-.183-1.01-.55-1.4a1.795 1.795 0 0 0-1.363-.584c-.543 0-1.01.195-1.399.585-.39.39-.584.856-.584 1.399s.195.997.584 1.363c.39.366.856.55 1.4.55zm13.777 0c.543 0 1.01-.189 1.4-.567.389-.377.584-.826.584-1.345a1.91 1.91 0 0 0-.585-1.4 1.909 1.909 0 0 0-1.399-.584c-.543 0-.997.195-1.363.585-.366.39-.55.856-.55 1.399s.19.997.567 1.363c.378.366.827.55 1.346.55zM6.375 24.65h21.25v-7.438H6.375v7.438z"/></symbol><symbol id="edit" viewBox="0 0 24 24"><path d="M11 4H4a2 2 0 0 0-2 2v14a2 2 0 0 0 2 2h14a2 2 0 0 0 2-2v-7"/><path d="M18.5 2.5a2.121 2.121 0 0 1 3 3L12 15l-4 1 1-4 9.5-9.5z"/></symbol><symbol id="home" viewBox="0 0 24 24"><path d="M3 9l9-7 9 7v11a2 2 0 0 1-2 2H5a2 2 0 0 1-2-2z"/><path d="M9 22V12h6v10"/></symbol><symbol id="hamburger" viewBox="0 0 24 24"><path stroke="#B4B4B4" stroke-linecap="round" stroke-linejoin="round" stroke-width="2" d="M21 10H3m18-4H3m18 8H3m18 4H3"/></symbol><symbol id="etc" viewBox="0 0 34 34"><path d="M7.367 18.7a1.64 1.64 0 0 1-1.204-.496A1.64 1.64 0 0 1 5.667 17c0-.472.165-.874.496-1.204a1.64 1.64 0 0 1 1.204-.496c.472 0 .873.165 1.204.496.33.33.496.732.496 1.204s-.166.874-.496 1.204a1.64 1.64 0 0 1-1.204.496zm9.633 0a1.64 1.64 0 0 1-1.204-.496A1.64 1.64 0 0 1 15.3 17c0-.472.165-.874.496-1.204A1.64 1.64 0 0 1 17 15.3c.472 0 .874.165 1.204.496.33.33.496.732.496 1.204s-.165.874-.496 1.204A1.64 1.64 0 0 1 17 18.7zm9.633 0a1.64 1.64 0 0 1-1.204-.496A1.64 1.64 0 0 1 24.933 17c0-.472.166-.874.496-1.204a1.64 1.64 0 0 1 1.204-.496c.473 0 .874.165 1.204.496.331.33.496.732.496 1.204s-.165.874-.495 1.204a1.64 1.64 0 0 1-1.205.496z"/></symbol><symbol id="check-square" viewBox="0 0 24 24"><path d="M9 11l3 3L22 4"/><path d="M21 12v7a2 2 0 0 1-2 2H5a2 2 0 0 1-2-2V5a2 2 0 0 1 2-2h11"/></symbol><symbol id="hamburger-gray" viewBox="0 0 24 24"><path stroke="#B4B4B4" stroke-linecap="round" stroke-linejoin="round" stroke-width="2" d="M21 10H3m18-4H3m18 8H3m18 4H3"/></symbol><symbol id="explore" viewBox="0 0 91 91"><path fill="#B0B0B0" d="M28.722 64.174l22.845-11.186c.316-.126.584-.3.805-.52.222-.222.395-.49.522-.807l11.185-22.844c.316-.632.237-1.185-.237-1.66-.474-.473-1.027-.552-1.659-.236L39.34 38.106c-.316.127-.585.3-.806.522-.221.22-.395.49-.522.805L26.826 62.278c-.316.632-.237 1.185.237 1.659s1.027.553 1.659.237zM45.5 49.292c-1.074 0-1.975-.364-2.702-1.09-.726-.727-1.09-1.628-1.09-2.702s.364-1.975 1.09-2.702c.727-.726 1.628-1.09 2.702-1.09s1.975.364 2.702 1.09c.726.727 1.09 1.628 1.09 2.702s-.364 1.975-1.09 2.702c-.727.726-1.628 1.09-2.702 1.09zm0 34.125c-5.182 0-10.08-.996-14.693-2.986-4.613-1.99-8.641-4.708-12.086-8.152-3.444-3.444-6.161-7.473-8.152-12.086C8.58 55.58 7.583 50.682 7.583 45.5s.996-10.08 2.986-14.693c1.99-4.613 4.708-8.641 8.152-12.086 3.445-3.444 7.473-6.161 12.086-8.152C35.42 8.58 40.318 7.583 45.5 7.583s10.08.996 14.693 2.986c4.613 1.99 8.642 4.708 12.086 8.152 3.444 3.445 6.161 7.473 8.152 12.086 1.99 4.613 2.986 9.511 2.986 14.693s-.996 10.08-2.986 14.693c-1.99 4.613-4.708 8.642-8.152 12.086-3.444 3.444-7.473 6.161-12.086 8.152-4.613 1.99-9.511 2.986-14.693 2.986zm0-5.688c8.847 0 16.43-3.16 22.75-9.479 6.32-6.32 9.48-13.903 9.48-22.75s-3.16-16.43-9.48-22.75-13.903-9.48-22.75-9.48-16.43 3.16-22.75 9.48-9.48 13.903-9.48 22.75 3.16 16.43 9.48 22.75 13.903 9.48 22.75 9.48z"/></symbol><symbol id="cancel" viewBox="0 0 24 24"><path stroke="#000" stroke-linecap="round" stroke-linejoin="round" stroke-width="2" d="M18 6L6 18M6 6l12 12"/></symbol><symbol id="isonline" viewBox="0 0 14 14"><circle cx="7" cy="7" r="6" fill="#FF833E" stroke="#FFC7A8" stroke-width="2"/></symbol><symbol id="plane" viewBox="0 0 34 34"><path d="M5.348 29.75c-.307 0-.56-.1-.762-.301-.2-.2-.3-.455-.3-.762 0-.306.1-.56.3-.761.201-.2.455-.301.762-.301h23.375c.307 0 .56.1.761.301.201.2.301.455.301.762 0 .306-.1.56-.3.761-.201.2-.455.301-.762.301H5.348zm1.948-7.58a.993.993 0 0 1-.69-.035 1.028 1.028 0 0 1-.514-.46l-2.657-4.533c-.165-.26-.194-.508-.088-.744.106-.236.313-.378.62-.425a.756.756 0 0 1 .39.035c.14.048.259.107.353.177l2.16 1.913 8.005-2.16-5.313-8.89C9.35 6.694 9.31 6.35 9.44 6.02c.13-.33.395-.555.796-.673.19-.047.39-.047.603 0 .212.047.39.13.53.248l9.599 8.677 7.65-2.054c.637-.19 1.216-.077 1.735.336.52.413.78.962.78 1.647 0 .449-.137.85-.408 1.204a1.94 1.94 0 0 1-1.045.709L7.296 22.17z"/></symbol><symbol id="map" viewBox="0 0 24 24"><path d="M1 6v16l7-4 8 4 7-4V2l-7 4-8-4-7 4zm7-4v16m8-12v16"/></symbol><symbol id="marker-name" viewBox="0 0 41 38"><path fill="#fff" d="M22.257 37.045c-.78 1.273-2.733 1.273-3.514 0l-7.468-12.18C10.494 23.593 11.47 22 13.032 22h14.936c1.562 0 2.538 1.592 1.757 2.866l-7.468 12.179z"/><rect width="100" height="26" fill="#fff" rx="5"/></symbol><symbol id="marker" viewBox="0 0 35 35"><circle cx="17.5" cy="17.5" r="17.5" fill="#FFDECC"/><circle cx="17.5" cy="17.5" r="12.5" fill="#FFAF83"/><circle cx="17.5" cy="17.5" r="7.5" fill="#FF833E"/></symbol><symbol id="logo" viewBox="0 0 130 24"><g clip-path="url(#a)"><path d="M7.51 5.71c.927 0 1.785.18 2.573.542a5.845 5.845 0 0 1 2.022 1.447 6.304 6.304 0 0 1 1.339 2.144c.332.81.499 1.68.499 2.61 0 .93-.166 1.808-.5 2.634a6.654 6.654 0 0 1-1.338 2.144 6.332 6.332 0 0 1-2.022 1.447 6.353 6.353 0 0 1-2.573.517c-.753 0-1.488-.13-2.206-.388-.718-.275-1.278-.62-1.68-1.033V24H0V6.071h3.098l.526.878a4.524 4.524 0 0 1 1.706-.955c.63-.19 1.357-.285 2.18-.285zm-.473 10.307c.473 0 .91-.095 1.313-.284.42-.19.779-.44 1.076-.75a3.55 3.55 0 0 0 .736-1.136c.192-.43.288-.895.288-1.395 0-.482-.096-.938-.288-1.37a3.21 3.21 0 0 0-.736-1.136 3.232 3.232 0 0 0-1.076-.775 3.045 3.045 0 0 0-1.313-.284 4.27 4.27 0 0 0-1.34.207c-.402.12-.76.327-1.076.62-.297.275-.534.646-.709 1.11-.175.448-.262.99-.262 1.628 0 .603.087 1.128.262 1.576.175.43.412.8.71 1.11a3.32 3.32 0 0 0 1.076.672c.42.138.866.207 1.339.207zM15.592 0h3.624v18.885h-3.624V0zm19.472 6.071v12.814h-3.125l-.367-1.37c-.508.672-1.12 1.12-1.838 1.344-.7.224-1.436.336-2.206.336a6.353 6.353 0 0 1-2.573-.517 6.744 6.744 0 0 1-2.022-1.447 7.039 7.039 0 0 1-1.366-2.144 7.335 7.335 0 0 1-.472-2.635c0-.93.157-1.8.473-2.61A6.647 6.647 0 0 1 22.932 7.7a6.191 6.191 0 0 1 2.022-1.447 6.092 6.092 0 0 1 2.573-.543c.84 0 1.61.13 2.31.388s1.278.672 1.734 1.24l.367-1.266h3.125zm-3.624 6.433c0-.672-.096-1.232-.289-1.68-.175-.464-.42-.835-.735-1.11a2.485 2.485 0 0 0-1.076-.62 4.03 4.03 0 0 0-1.313-.207 3.22 3.22 0 0 0-1.34.284 3.63 3.63 0 0 0-1.076.775c-.315.31-.56.69-.735 1.137a3.6 3.6 0 0 0-.263 1.37c0 .499.088.964.263 1.394.175.43.42.81.735 1.137.315.31.674.56 1.077.749.42.19.866.284 1.339.284.945 0 1.742-.284 2.39-.852.664-.586 1.006-1.473 1.023-2.661zm12.746-6.433c.49 0 1.032.069 1.628.207a4.643 4.643 0 0 1 1.68.775c.525.379.963.904 1.313 1.576.368.671.551 1.541.551 2.609v7.647h-3.65v-7.518c0-.396-.07-.732-.21-1.008a1.495 1.495 0 0 0-.525-.645 1.833 1.833 0 0 0-.735-.362 2.85 2.85 0 0 0-.84-.13c-.228 0-.481.044-.762.13-.262.069-.516.19-.761.362-.228.172-.42.396-.578.671a1.953 1.953 0 0 0-.236.982v7.518h-3.623V6.07h3.098l.525.982c.42-.293.893-.526 1.418-.698a4.994 4.994 0 0 1 1.707-.284zm14.205 0c.49 0 1.033.069 1.628.207a4.644 4.644 0 0 1 1.68.775c.526.379.964.904 1.314 1.576.367.671.551 1.541.551 2.609v7.647h-3.65v-7.518c0-.396-.07-.732-.21-1.008a1.495 1.495 0 0 0-.525-.645 1.832 1.832 0 0 0-.735-.362 2.85 2.85 0 0 0-.84-.13c-.228 0-.482.044-.762.13-.262.069-.516.19-.761.362-.228.172-.42.396-.578.671a1.953 1.953 0 0 0-.236.982v7.518h-3.624V6.07h3.099l.525.982c.42-.293.892-.526 1.418-.698a4.993 4.993 0 0 1 1.706-.284zm15.677 0h3.623v12.814h-3.098l-.525-.982a5.93 5.93 0 0 1-1.445.724 5.447 5.447 0 0 1-1.706.258 7.529 7.529 0 0 1-1.628-.207 4.644 4.644 0 0 1-1.68-.775c-.526-.379-.972-.904-1.34-1.576-.35-.672-.525-1.541-.525-2.609V6.071h3.65v7.518c0 .396.061.732.183 1.007.14.276.316.5.526.672.227.155.481.276.761.362.28.069.57.103.867.103.227 0 .472-.034.735-.103.28-.086.534-.216.761-.388.245-.172.447-.396.604-.672.158-.275.237-.602.237-.981V6.07zm12.786 0c.49 0 1.033.069 1.628.207a4.643 4.643 0 0 1 1.68.775c.526.379.963.904 1.313 1.576.368.671.552 1.541.552 2.609v7.647h-3.65v-7.518c0-.396-.07-.732-.21-1.008a1.494 1.494 0 0 0-.525-.645 1.833 1.833 0 0 0-.735-.362 2.85 2.85 0 0 0-.84-.13c-.228 0-.482.044-.762.13-.263.069-.516.19-.762.362-.227.172-.42.396-.577.671-.158.276-.236.603-.236.982v7.518h-3.624V6.07h3.098l.526.982c.42-.293.892-.526 1.417-.698a4.994 4.994 0 0 1 1.707-.284zm11.37 12.814H94.6V6.07h3.624v12.814zm-1.812-14.57c-.56 0-1.033-.19-1.418-.569a1.881 1.881 0 0 1-.577-1.395c0-.551.192-1.016.577-1.395a1.9 1.9 0 0 1 1.418-.594 1.9 1.9 0 0 1 1.418.594c.385.379.578.844.578 1.395s-.193 1.016-.578 1.395a1.944 1.944 0 0 1-1.418.568zm9.32 9.971c0 .603.184 1.068.551 1.395.385.328.884.491 1.497.491.49 0 .98-.095 1.47-.284v2.997c-.437.138-.901.25-1.391.336-.49.103-.981.155-1.471.155a6.08 6.08 0 0 1-1.601-.207 3.664 3.664 0 0 1-1.366-.698c-.402-.344-.726-.792-.971-1.343-.228-.568-.342-1.266-.342-2.092V9.248h-1.864V6.846l1.864-.775V3.203h3.624v2.868h3.518v3.178h-3.518v5.037zm15.303-8.215H125L116.781 24h-3.965l3.23-7.053-5.514-10.876h4.044l3.387 6.691 3.072-6.691z"/></g><g clip-path="url(#b)"><path fill="#FF833E" d="M127.5 24a2.5 2.5 0 1 0 0-5 2.5 2.5 0 0 0 0 5z"/></g><defs><clipPath id="a"><path fill="#fff" d="M0 0h125v24H0z"/></clipPath><clipPath id="b"><path fill="#fff" d="M0 0h5v5H0z" transform="translate(125 19)"/></clipPath></defs></symbol><symbol id="search" viewBox="0 0 24 24"><circle cx="11" cy="11" r="8"/><path d="M21 21l-4.35-4.35"/></symbol><symbol id="plus" viewBox="0 0 24 24"><path stroke="#C5C5C5" stroke-linecap="round" stroke-linejoin="round" stroke-width="2" d="M12 5v14m-7-7h14"/></symbol><symbol id="shopping-bag" viewBox="0 0 24 24"><path d="M6 2L3 6v14a2 2 0 0 0 2 2h14a2 2 0 0 0 2-2V6l-3-4zM3 6h18m-5 4a4 4 0 0 1-8 0"/></symbol><symbol id="users-24" viewBox="0 0 24 24"><path stroke="#000" stroke-linecap="round" stroke-linejoin="round" stroke-width="2" d="M17 21v-2a4 4 0 0 0-4-4H5a4 4 0 0 0-4 4v2m8-10a4 4 0 1 0 0-8 4 4 0 0 0 0 8zm14 10v-2a4 4 0 0 0-3-3.87m-4-12a4 4 0 0 1 0 7.75"/></symbol><symbol id="users-35" viewBox="0 0 35 35"><path stroke="#FF833E" stroke-linecap="round" stroke-linejoin="round" stroke-width="2" d="M24.792 30.625v-2.917a5.834 5.834 0 0 0-5.834-5.833H7.292a5.834 5.834 0 0 0-5.834 5.833v2.917m11.667-14.583a5.833 5.833 0 1 0 0-11.667 5.833 5.833 0 0 0 0 11.667zm20.417 14.583v-2.917a5.833 5.833 0 0 0-4.375-5.643m-5.834-17.5a5.833 5.833 0 0 1 0 11.302"/></symbol><symbol id="users" viewBox="0 0 24 24"><path d="M17 21v-2a4 4 0 0 0-4-4H5a4 4 0 0 0-4 4v2"/><circle cx="9" cy="7" r="4"/><path d="M23 21v-2a4 4 0 0 0-3-3.87m-4-12a4 4 0 0 1 0 7.75"/></symbol><symbol id="stars" viewBox="0 0 80 12"><path fill="#FF833E" stroke="#FF833E" stroke-linecap="round" stroke-linejoin="round" stroke-width="1.5" d="M74 1l1.545 3.13L79 4.635 76.5 7.07l.59 3.44L74 8.885l-3.09 1.625.59-3.44L69 4.635l3.455-.505L74 1zM23 1l1.545 3.13L28 4.635 25.5 7.07l.59 3.44L23 8.885l-3.09 1.625.59-3.44L18 4.635l3.455-.505L23 1zm34 0l1.545 3.13L62 4.635 59.5 7.07l.59 3.44L57 8.885l-3.09 1.625.59-3.44L52 4.635l3.455-.505L57 1zM6 1l1.545 3.13L11 4.635 8.5 7.07l.59 3.44L6 8.885 2.91 10.51l.59-3.44L1 4.635l3.455-.505L6 1zm34 0l1.545 3.13L45 4.635 42.5 7.07l.59 3.44L40 8.885l-3.09 1.625.59-3.44L35 4.635l3.455-.505L40 1z"/></symbol><symbol id="users-18" viewBox="0 0 18 18"><path stroke="#FF833E" stroke-linecap="round" stroke-linejoin="round" stroke-width="1.5" d="M12.75 15.75v-1.5a3 3 0 0 0-3-3h-6a3 3 0 0 0-3 3v1.5m6-7.5a3 3 0 1 0 0-6 3 3 0 0 0 0 6zm10.5 7.5v-1.5A3 3 0 0 0 15 11.348m-3-9a3 3 0 0 1 0 5.812"/></symbol><symbol id="user" viewBox="0 0 24 24"><path d="M20 21v-2a4 4 0 0 0-4-4H8a4 4 0 0 0-4 4v2"/><circle cx="12" cy="7" r="4"/></symbol></svg>